<svg xmlns="http://www.w3.org/2000/svg"  viewBox="0 0 64 64" width="64px" height="64px"><linearGradient id="path2900_1_" x1="14.099" x2="14.099" y1="16.277" y2="43.569" gradientUnits="userSpaceOnUse"><stop offset="0" stop-color="#6dc7ff"/><stop offset="1" stop-color="#e6abff"/></linearGradient><path id="path2900" fill="url(#path2900_1_)" d="M8.4,41.8c-1.1-0.8-2.2-1.7-3-2.8c-1.6-2-2.9-4.3-3.8-6.8c-0.5-1.6-0.7-3.3-1.4-4.8	c-0.7-1.1,0.1-2.3,1.3-2.7c0.5-0.1,1.5-0.6,0.3-0.2c-1,0.8-1.1-0.7-0.1-0.8c0.7-0.1,1-0.7,0.7-1.2c-0.8-0.5,1.9-1.1,0.5-1.8	c-1.4-1.5,1.9-1.8,1.1-0.1c-0.2,1.3,2.3-0.2,1.7,1.3C6.6,22.6,8.3,22,8.2,23c0.9,0.1,1.2,0.8,2,0.8c0.8,0.4,2.4,0.7,2.7,1.6	C12,26.2,10.1,24.2,10,26c0.3,2.7,0.2,5.5,1.2,8.1c0.5,1.6,1.6,2.8,2.6,4c1,1.2,2.3,2,3.7,2.7c1.2,0.6,2.5,0.9,3.8,1.2	c0.5-0.4,1.5-1.9,2.3-1.3c0,0.7-1.6,1.5-0.1,1.4c0.9-0.3,1.5,0.7,2.3-0.2c0.7,0.8,2.9-0.5,2.4,1.2c-0.7,0.4-1.6,0.2-2.3,0.8	c-1.1-0.5-2,0.5-3.2,0.4c-1.4,0.2-2.7,0.3-4.1,0.3c-2.2-0.2-4.5-0.3-6.7-1C10.7,43.2,9.5,42.5,8.4,41.8L8.4,41.8z M10.3,42.6	c1.2,0.5,2.3,1,3.6,1.2c2,0.3,4.2,0.7,6.2,0.3c-0.9-0.4-1.9,0.2-2.8-0.3c-1.1,0.2-2.3-0.1-3.4-0.2c-1.3-0.6-2.7-1-3.9-1.7	c-1.5-0.5,0.8,0.7,1.2,0.8c0.9,0.5-1-0.3-1.3-0.5c-0.8-0.4-0.9-0.3-0.1,0.1C10,42.5,10.2,42.6,10.3,42.6L10.3,42.6z M8.1,41.1	c1.1,0.4,0-0.8-0.5-0.7c-0.2-0.4-0.9-0.7-0.4-0.9c-0.8,0.3-0.9-1.1-1.3-0.9c-0.9-0.3-0.3-1.3-1.4-1.9c-0.1-0.6-1-1.2-1.3-2.1	C3,34.1,2.1,32.7,2.7,34c0.5,1.3,1.3,2.3,2.1,3.4c0.6,1,1.2,2.1,2.2,2.7C7.3,40.5,7.6,41,8.1,41.1L8.1,41.1z M4.8,37.5 M9.5,41.6 M10.1,41.8 M10.8,42.1 M12.2,42.9 M9.6,41.1 M10.2,41.4 M13.1,43.2c0.5,0.3,2.7,0.6,1.3,0.1C14.2,43.4,11.8,42.6,13.1,43.2z M8.5,39.6 M9.8,40.4 M11,41.1 M7.9,39c0.5,0.4,2.2,0.1,0.8-0.3c-0.6-0.3-2-0.6-1.1,0.2L7.9,39L7.9,39z M11.8,41.3 M10.6,40.4	c1.3,0.4-1.1-0.8-0.3-0.1l0.2,0.1L10.6,40.4L10.6,40.4z M12.9,41.7C14.2,41.8,11.8,41.6,12.9,41.7L12.9,41.7z M7.5,38.3 M15.1,42.9 M9.6,39.6 M7.6,38.1 M5.2,36.5 M11.5,40.6 M15.5,43 M11.2,40.2 M8.2,38.4 M13.2,41.4 M10.6,39.7c1,0.1-1.2-0.7-0.2-0.1L10.6,39.7	L10.6,39.7z M14,41.8c0.9-0.5,0.6,1.3,1.5,0.2c0.9-0.7-0.8,0.8,0.3,0.1c0.8-0.5,2,0.3,2.8,0.5c0.5,0,1.1,0.5,1.6,0.2	c1.1-0.3-2.1-0.4-1.3-1c-1,0.3-1.7-0.3-2.2-1c-1.1-0.3-2.4-0.8-3-1.8c-0.2-0.4,0.3,0.1-0.2-0.6c-0.7-0.6-1-1.3-1.5-2	c-0.5-0.3-0.6-1.1-0.7,0c0-0.7-0.6-1.2-0.8-1c0-0.7,0.7-0.3,0.2-0.8c-0.1-0.7-0.5-1.4-0.6-2.2c-0.2-0.4,0-1.2-0.6-0.3	C9.6,33,9.8,31,10.1,31.6c0.4-0.7-0.1-0.6-0.2-0.5c0.3-0.6,0.2-1.4-0.1-1.1c0.1-0.6,0.2-2.2-0.2-1.9c0.3-0.6,0.5-2.9-0.6-2	c-0.5,0-1.2,0.2-1.6,0.3c1.2,0.6-0.1,0.2-0.6,0.1c-0.1,0.6-0.5,0.3-1.1,0.3c0.9,0.1-0.5,1-1,0.6c-0.7,0.3,0.6,1.2,0,1.4	c0.1,0.4-1.1-0.1-1,0.8c-0.7-0.3-0.1,1.1,0.2,0.6c1.1,0.3,0.8,1,0.8,1.7c-0.2,0.4-0.9-0.9-0.2-0.9c-0.6-1-0.7-0.4-1.2,0.1	c-0.1,0,1.3,0.6,0.4,0.9c0.8,0.1,0.8,0.8,0.9,1.2c0.5,0.5,0.4-0.5,0.9,0c-0.3-0.5-1.8-1.4-0.6-1.1c0-0.5-0.2-0.9,0.2-0.9	c0.4-0.7-0.4,1.6,0.4,0.8C6,32,6,31.5,6.4,32.2c0.6,0.6,0.2,1-0.6,0.5c0.1,0.5,1.1,0.7,0.9,1.5c0.2,0.7,0.5,0.4,0.7,0.4	c0.2,0.7,0.3,0.2,0.3-0.1c0.8,0.2,0.6,0.7,0.9,1c0.6,0.3-0.8-1.8,0.2-0.6c1.1,1,0.4,1.4-0.6,1.2c0.6,0,0.8,0.8,1.5,0.8	c0.7,0.3,1.1,1.6,0,1.1c-0.4-0.4-1.9-0.8-0.7-0.1c1.1,0.5,2,0.8,3,1.4c0.8,0.5,1.1,1.2,1.4,1.3c-0.6,0.3-1.9-0.2-1-0.4	c-0.6-0.1-1.3-0.4-0.7,0.3c0.5,0.4,1.7,0.4,1.9,0.4c-0.2,0.4-0.5,0.4,0,0.5C13.2,41.5,13.9,41.6,14,41.8L14,41.8z M12.8,38.5	c-0.3-0.4-0.4-1-0.1-0.5C13,38.1,13.4,39.1,12.8,38.5L12.8,38.5z M16.6,40.9 M12.3,37.6 M11.9,37.1 M7.3,33.9 M11,35.9 M8.4,34.1 M10.6,34.8c-0.4-0.9,0.3-0.5,0.1,0.2L10.6,34.8L10.6,34.8z M6.8,32.3c-0.2-0.3-0.5-1.2-0.4-1.5c0.1,0.4,0.9,1.9,0.4,0.6	c-0.6-1.1,0.7,0.4,0.8,0.6c0.1,0.3-0.4-0.1-0.1,0.6C7,31.9,7.3,33,6.8,32.3z M5.6,31.4 M6.1,31.6 M4.9,30.6c-0.4-0.4-0.8-0.8,0-0.3	c0.3,0-0.7-0.9,0.1-0.3C5.7,30.2,5.3,31.3,4.9,30.6z M5.5,30.6 M5.9,30.8 M5.1,30c-1.3-1.1,1.6,0.6,0.2,0.2L5.1,30L5.1,30z M8.8,32.1c-0.6-0.3-0.1-2.3,0-1c0.5-0.2,0,0.7,0.4,0.7C9.1,32.4,8.9,32.6,8.8,32.1z M10.1,32.9 M9.9,32.7 M5.4,29.6	c-0.8-1.1,2.4,1.1,0.5,0.3C5.7,29.8,5.5,29.8,5.4,29.6z M8,31C7.9,30,8.1,31.1,8,31L8,31z M9.9,32.2 M5.5,29.2	c0.5-0.1,2,0.9,0.6,0.3C5.9,29.3,5.6,29.3,5.5,29.2z M9.7,31.3c0.1-1,0.3-0.6,0,0.1L9.7,31.3L9.7,31.3L9.7,31.3z M5.9,28.8	c0.2-0.3-0.5-1.3,0.1-0.4c0.3,0.2,0.8,0.4,0.3,0.5C7,29.5,6.1,29.1,5.9,28.8z M9.5,30.9 M5.4,27.8 M6.4,28.4 M9,29.8 M8.9,29.5 M8.7,28.9C8.6,28.5,8.9,29.4,8.7,28.9L8.7,28.9z M9,28.3c-0.3-0.4,0.3-2,0.4-1c-0.3,0.7-0.1,1.1,0.1,0.2C9.9,26.7,9.4,29,9,28.3	L9,28.3z M9.4,26 M8.8,38.5 M10.1,39.2c0.7,0.2,0.7-0.1,0.1-0.2c-0.4-0.3-1.5-0.7-0.5,0C9.7,39.1,10,39.1,10.1,39.2L10.1,39.2z M7.5,37.5c0.4,0.3,1.5,0.8,0.6,0.1c0.3-0.4-0.6-0.6-0.3-0.8c-0.8-0.5-0.6-0.4-0.1-0.4c-0.9-0.4,0.1-0.4,0.1-0.6	c-0.4-0.1-1.8-0.6-0.9,0C6,35.4,6.6,36,6.4,35.9c-0.9-0.2,0.8,0.7-0.1,0.4c0.5,0.4,1.3,1,0.2,0.4C6.3,37,7.3,37.3,7.5,37.5L7.5,37.5	z M8.9,38.2 M15.8,42.5 M16.6,42.8c0.4-0.4,0,0.6,0.6-0.1c0-0.5,0-0.8-0.7-0.2C16.3,42.6,16.2,43.1,16.6,42.8L16.6,42.8z M5.2,35.6 M5.9,36.1 M10.3,38.8c0.4,0.4,2,0.3,0.5,0C10.6,38.5,9.5,38.6,10.3,38.8z M16.3,42.5 M17.7,43.4 M17.7,43.1	C18.4,42.4,17,43.2,17.7,43.1L17.7,43.1z M3.3,34c-0.6-0.9-0.4-1.3-1-2c-0.1-0.6-1-1.8-0.5-0.5C2.4,32.3,2.5,33.5,3.3,34z M17.4,42.9 M18.4,43.3 M5,34.7 M18.2,43c0.6-0.4-0.1-0.4-0.1,0L18.2,43L18.2,43z M9.5,37.5 M10,37.8 M19.3,43.3	c0.8-0.6-0.5-0.1-0.2,0.1L19.3,43.3L19.3,43.3z M19,43.2 M20.6,44.2 M5.4,34.4c0.6,0.1,2.4,1.5,1.4,0.1c-0.6-0.2-0.2-1.5-0.8-1.3	c0.4,0.6,0.3,0.9-0.5,0.5c-1-0.5-0.6,0.2-0.4,0.4C4.8,34.3,5.4,34.4,5.4,34.4L5.4,34.4z M2.6,32.3c0.1-0.4-1-2.5-0.5-1	C2.2,31.6,2.2,32.1,2.6,32.3z M7.7,35.4 M8.5,35.6 M15.1,39.8C15,39.5,14.6,39.8,15.1,39.8L15.1,39.8z M15.4,40 M18.1,41.7 M4,32.6 M14.5,39.3 M3.7,31.9 M5.1,32.6 M21.6,42.8c0.6-0.1,2,0.3,2.2-0.2c-0.7,0-2.5-0.5-2.6,0.1l0.2,0L21.6,42.8L21.6,42.8L21.6,42.8z M5.5,32.7 M1.9,30.2 M2.8,30.4 M3.3,30.7 M6.3,32.6 M2.9,30.1 M1.2,29 M1.4,28.8 M2.9,29.7c0.6-0.2-1.1-0.5-0.1,0L2.9,29.7z M22.1,41.5 M24.4,42.7 M3,28.9 M1,27.6c-0.1-0.6-0.1-1.7,1-1.4c-1.4,0.3,1,1.7,0.7,0.6c0.6,0,1.2-0.3,0.8,0.2c1.2-0.1,2-1.1,3.1-1	c0.9-0.1,1.8-0.2,2.8-0.6c0.8-0.1,1.5-0.9,1.1-1.4c-1.1-0.1-2.2,0-3.3,0.3c-1.3,0.3-2.5,0.8-3.8,1c-1.3,0.2,0.3,0.5-0.1,0.5	c-0.7,0.2,0.8,0.4-0.1,0.6c-0.5-0.1-1.1-0.3-0.9-0.9C1,25.8,0,26.3,1,27.6L1,27.6L1,27.6L1,27.6z M3.9,26.1c0.3-1.1,1.5,0.9,0.5,0.1	C4.3,26.1,4,26,3.9,26.1z M4,25.6 M4.5,25.6c0-0.5,1.2,0.3,0.2,0.2L4.5,25.6L4.5,25.6z M5.2,25.3 M5.4,25.2c0.4-0.5,2.5-0.3,1-0.1	C6,24.8,5.7,25.3,5.4,25.2z M8,24.7 M8.8,24.7c0.3-0.7,1.1-0.3,0.1-0.1C8.9,24.7,8.9,25,8.8,24.7z M2.7,28.6	C3.5,28.1,1.9,28.1,2.7,28.6L2.7,28.6z M3.3,28.7 M1.5,27.5 M25.8,42.6 M23.3,40.9 M26.4,42.8c0.7,0,2-0.2,0.6-0.2	C26.8,42.6,25.7,42.6,26.4,42.8L26.4,42.8z M3.9,28.4c0.5,0,0.8-0.6-0.1-0.6c-1.4-0.1,1.3,0.5-0.2,0.3C3.4,28.3,3.9,28.5,3.9,28.4z M4.3,28.7 M4.9,27.2 M3.1,24.2c0.9-0.3,2.2-0.7,2.7,0.2c-0.5-0.5-0.2-1.1,0.2-0.3c0.6,0.8,0.9-0.4,0.5-0.6c0.4,0.6,1,0.8,0.3,0	c0.7-0.9-1.4,0.1-1.9,0.1C4.7,23.7,2.5,24.2,3.1,24.2z M3.7,23.2c0.5-0.4,1.9,0.2,1-0.4C4.6,22.7,2.8,23.3,3.7,23.2z M5.6,23.3	c0.6,0-0.3-0.8,0.5-0.5c-0.1-0.4-0.9-0.5-1.2-0.6C4.7,22.5,5.3,23.3,5.6,23.3z M4,21.5 M4.8,21.7c1-0.1-0.3-0.4-0.2,0L4.8,21.7	L4.8,21.7z M3.3,20.5c-0.7-0.9,1.3,0.2,0.6-0.8C3.3,19.2,2.7,20.2,3.3,20.5z M12.5,25.4c0.3-0.6-1.4-0.8-0.2-0.2	C12.4,25.3,12.4,25.5,12.5,25.4z"/><g id="text3850"><linearGradient id="path2830_1_" x1="23.312" x2="23.312" y1="18.872" y2="35.284" gradientUnits="userSpaceOnUse"><stop offset="0" stop-color="#1a6dff"/><stop offset="1" stop-color="#c822ff"/></linearGradient><path id="path2830" fill="url(#path2830_1_)" d="M28,21.4c-0.1,0.5-0.2,1.2-0.2,2.3c0,0.2-0.1,0.3-0.3,0.3c-0.2,0-0.3-0.1-0.4-0.3 c-0.2-0.5-0.4-0.9-0.6-1.1c-0.2-0.2-0.5-0.4-0.9-0.4c-0.4-0.1-1.4-0.1-2.9-0.1c-0.4,0-0.6,0-0.7,0.1c-0.1,0-0.1,0.2-0.1,0.3v4.7 c0,0.2,0.1,0.2,0.3,0.2c0.6,0,1.5,0,2.7-0.1c0.2,0,0.4-0.1,0.5-0.2c0.1-0.1,0.2-0.4,0.2-0.9c0-0.3,0.2-0.4,0.5-0.3 c0.2,0,0.3,0.2,0.3,0.3c-0.2,0.9-0.3,2.2-0.2,3.7c0,0.2-0.1,0.3-0.3,0.3c-0.2,0-0.3-0.1-0.4-0.3c-0.2-0.9-0.5-1.3-1-1.4 c-0.5-0.1-1.3-0.1-2.4-0.1c-0.1,0-0.2,0-0.2,0.1v4.7c0,0.3,0.1,0.6,0.4,0.7c0.2,0.1,0.6,0.2,1.3,0.3c0.3,0,0.5,0.2,0.4,0.4 c0,0.2-0.3,0.3-0.9,0.3c-1.6-0.1-3-0.1-4.1,0c-0.3,0-0.4-0.1-0.4-0.4c0-0.2,0.1-0.3,0.4-0.3c0.7-0.1,1-0.7,1-1.8v-8.9 c0-0.5-0.1-0.8-0.2-1.1c-0.2-0.2-0.5-0.5-0.9-0.7c-0.3-0.1-0.4-0.3-0.3-0.5c0-0.1,0.1-0.2,0.2-0.2c0.1,0,0.3,0,0.5,0 c0.4,0.1,1.5,0.1,3.1,0.1c1.9,0,3.6,0,4.9-0.1C27.8,21.2,28,21.2,28,21.4C28,21.4,28,21.4,28,21.4L28,21.4z"/><linearGradient id="path2832_1_" x1="32.309" x2="32.309" y1="18.872" y2="35.284" gradientUnits="userSpaceOnUse"><stop offset="0" stop-color="#1a6dff"/><stop offset="1" stop-color="#c822ff"/></linearGradient><path id="path2832" fill="url(#path2832_1_)" d="M34.8,34.6c0,0.3-0.2,0.4-0.5,0.4c-1-0.1-2.1-0.1-3.5,0c-0.3,0-0.5,0-0.5,0 c-0.1,0-0.1-0.2-0.1-0.3c0-0.2,0.2-0.3,0.6-0.4c0.4-0.1,0.6-0.5,0.6-1v-9.4c0-0.6-0.1-1-0.2-1.2c-0.2-0.3-0.4-0.5-0.9-0.6 c-0.2-0.1-0.3-0.2-0.3-0.3c0-0.2,0.2-0.4,0.5-0.5c0.5-0.2,1-0.4,1.5-0.7c0.4-0.2,0.7-0.4,0.8-0.4c0.3,0,0.4,0.2,0.4,0.5 c0,0,0,0.3,0,1c0,0.7,0,1.4,0,2l0,9.3c0,0.4,0.1,0.7,0.3,0.9c0.2,0.2,0.6,0.3,1.1,0.4C34.6,34.3,34.8,34.4,34.8,34.6z"/><linearGradient id="path2834_1_" x1="40.213" x2="40.213" y1="18.872" y2="35.284" gradientUnits="userSpaceOnUse"><stop offset="0" stop-color="#1a6dff"/><stop offset="1" stop-color="#c822ff"/></linearGradient><path id="path2834" fill="url(#path2834_1_)" d="M44.2,33.9c0,0.1-0.3,0.4-0.8,0.7c-0.5,0.3-1,0.4-1.3,0.4c-0.3,0-0.5-0.1-0.7-0.4 c-0.2-0.3-0.4-0.4-0.4-0.4c-0.1,0-0.4,0.1-1,0.4c-0.6,0.3-1.2,0.4-1.8,0.4c-0.6,0-1-0.2-1.4-0.5c-0.4-0.4-0.6-0.9-0.6-1.5 c0-1.2,1.4-2.1,4.1-2.6c0.5-0.1,0.7-0.3,0.7-0.6l0-0.7c0-1.1-0.5-1.7-1.5-1.7c-0.3,0-0.6,0.3-0.8,0.8c-0.3,0.5-0.6,0.8-1.1,0.9 c-0.6,0.1-0.9-0.2-0.9-0.7c0-0.3,0.4-0.7,1.3-1.2c0.9-0.5,1.7-0.7,2.6-0.7c1.4,0,2.1,0.7,2.1,2l0,4.3c0,0.4,0.2,0.7,0.6,0.7 c0.1,0,0.2,0,0.4-0.1c0.2,0,0.3-0.1,0.4-0.1C44.1,33.5,44.2,33.6,44.2,33.9L44.2,33.9z M41,31.6c0-0.2,0-0.3-0.1-0.3 c-0.1-0.1-0.2-0.1-0.4,0C38.8,31.5,38,32,38,32.8c0,0.8,0.4,1.2,1.3,1.2c0.3,0,0.7-0.1,1.1-0.2c0.4-0.2,0.6-0.3,0.6-0.5L41,31.6z"/><linearGradient id="path2836_1_" x1="48.889" x2="48.889" y1="18.872" y2="35.284" gradientUnits="userSpaceOnUse"><stop offset="0" stop-color="#1a6dff"/><stop offset="1" stop-color="#c822ff"/></linearGradient><path id="path2836" fill="url(#path2836_1_)" d="M52,32.7c0,0.7-0.3,1.3-0.8,1.7c-0.6,0.4-1.3,0.6-2.3,0.6c-0.6,0-1.3-0.1-1.9-0.2 c-0.6-0.1-0.9-0.2-1-0.3c-0.1-0.1-0.1-0.6-0.1-1.4c0-0.4,0.1-0.6,0.2-0.6c0.2,0,0.3,0.1,0.4,0.3c0.5,0.9,1.4,1.4,2.5,1.4 c1,0,1.5-0.3,1.5-1c0-0.3-0.1-0.5-0.3-0.7c-0.2-0.2-0.7-0.5-1.4-0.8c-1-0.4-1.7-0.8-2-1.2c-0.4-0.4-0.5-0.8-0.5-1.5 c0-0.7,0.3-1.3,0.9-1.7c0.5-0.4,1.2-0.6,2.1-0.6c0.6,0,1.1,0,1.5,0.1c0.5,0.1,0.8,0.2,0.8,0.3c0.1,0.4,0.2,0.9,0.3,1.7 c0,0.1-0.1,0.2-0.3,0.2c-0.2,0-0.4,0-0.5-0.1c-0.5-0.9-1.2-1.3-2.1-1.3c-0.9,0-1.4,0.3-1.4,0.9c0,0.3,0.1,0.6,0.4,0.8 c0.2,0.2,0.8,0.4,1.6,0.8c0.9,0.4,1.5,0.7,1.8,1C51.8,31.5,52,32,52,32.7z"/><linearGradient id="path2838_1_" x1="58.783" x2="58.783" y1="18.872" y2="35.284" gradientUnits="userSpaceOnUse"><stop offset="0" stop-color="#1a6dff"/><stop offset="1" stop-color="#c822ff"/></linearGradient><path id="path2838" fill="url(#path2838_1_)" d="M64,34.5c0,0.2-0.2,0.4-0.5,0.4c-0.5,0-1.1,0-1.9,0.1c-0.4,0.1-0.7,0-0.8-0.1 c-1.1-1.2-2-2.4-2.8-3.7c-0.1-0.1-0.1-0.2-0.2-0.2c-0.1,0-0.3,0.1-0.6,0.3c-0.3,0.2-0.5,0.4-0.5,0.8c0,0.2,0,0.6,0,1 c0,0.4,0.1,0.7,0.3,0.9c0.1,0.1,0.5,0.2,1,0.2c0.3,0,0.5,0.2,0.5,0.4c0,0.2,0,0.3-0.1,0.3c-0.1,0-0.2,0-0.4,0 c-0.7-0.1-1.9,0-3.5,0.1c-0.4,0-0.6,0-0.7-0.2c0,0,0-0.1,0-0.2c0-0.2,0.2-0.4,0.6-0.5c0.4-0.1,0.6-0.5,0.6-1.3v-9.1 c0-0.6-0.1-1-0.2-1.2c-0.2-0.3-0.5-0.5-1-0.7c-0.2-0.1-0.3-0.2-0.3-0.3c0-0.2,0.2-0.4,0.5-0.5c0.5-0.2,1-0.4,1.5-0.7 c0.4-0.2,0.6-0.4,0.7-0.4c0.3,0,0.4,0.2,0.4,0.5c0,0,0,0.3,0,1c0,0.5,0,1.2,0,2l0,6.5c0,0.2,0,0.3,0.1,0.3c0.1,0,0.3-0.1,0.5-0.3 c0.6-0.4,1.3-1,2.1-1.8c0.2-0.2,0.2-0.3,0.2-0.4c0-0.2-0.3-0.3-0.8-0.4c-0.2,0-0.4-0.2-0.3-0.4c0-0.2,0.1-0.3,0.4-0.3 c0.5,0.1,1.2,0.1,2.2,0.1c0.7,0,1.3,0,2,0c0.2,0,0.3,0.1,0.3,0.4c0,0.2-0.2,0.4-0.5,0.4c-0.5,0-1,0.1-1.5,0.4 c-0.7,0.3-1.4,0.8-2.1,1.6c-0.1,0-0.1,0.1-0.1,0.2c0,0.1,0.1,0.3,0.4,0.7c0.9,1.3,1.7,2.3,2.4,3c0.5,0.4,1,0.6,1.4,0.6 c0.3,0,0.5,0,0.6,0.1C64,34.2,64,34.4,64,34.5L64,34.5z"/></g></svg>