<svg xmlns="http://www.w3.org/2000/svg"  viewBox="0 0 64 64" width="64px" height="64px" baseProfile="basic"><linearGradient id="3Ws1XkshDxMpX8svHB-Rna" x1="39.563" x2="39.563" y1="10" y2="53.832" gradientUnits="userSpaceOnUse"><stop offset="0" stop-color="#e6abff"/><stop offset="1" stop-color="#6dc7ff"/></linearGradient><path fill="url(#3Ws1XkshDxMpX8svHB-Rna)" d="M32,10c-0.249,0-0.491,0.029-0.737,0.037c-3.689,2.002-6.138,5.913-6.138,10.276	c0,1.896,0.439,3.703,1.305,5.374c1.056,2.036,2.842,3.729,5.169,4.901l1.676,0.843c2.587,1.299,4.582,3.201,5.771,5.495	c0.956,1.841,1.46,3.916,1.46,6.006c0,4.481-2.313,8.534-5.887,10.9c10.899-1.301,19.382-10.587,19.382-21.831	C54.001,19.87,44.131,10,32,10z M51.996,36.775c0.045,0.069-0.065,0.154-0.115,0.077c-1.067-1.275-2.775-2.515-3.863-4.311	c-0.153-0.253-0.073-0.56,0.186-0.697c1.396-0.748,1.642-0.612,3.047-1.218c-1.375-1.375-2.801-1.87-5.062-2.439	c-0.443-0.092-0.697-0.463-0.771-0.872c-0.121-0.444-0.378-1.196-0.648-1.797c-1.954-3.948-4.389-9.11-9.331-9.498	c-0.326-0.004-0.637-0.136-0.853-0.353c-0.623-0.594-1.495-1.33-2.296-1.451c-0.158,0.015-0.078-0.038-0.201,0.074	c-0.32,0.375-0.256,0.389-0.036,0.866c0.297,0.507,0.864,1.088,1.42,1.661c0.565,0.73,0.173,1.799,0.544,2.618	c0.153,0.582,0.473,1.269,0.829,1.69c0.172,0.221,0.224,0.502,0.171,0.756c-0.396,1.893-0.675,3.935-0.292,5.832	c0.008,0.202,0.206,0.278,0.352,0.205c0.045-0.036,0.044-0.011,0.22-0.32c0.216-0.481,1.755-3.425,2.201-2.472	c0.65,2.115,1.554,6.229,3.468,7.501c0.081,0.034,0.018,0.168-0.062,0.122c-1.999-1.033-3.618-3.688-4.095-5.478	c-0.371,0.032-0.704,0.333-0.891,0.678c-0.282,0.989-1.733,1.04-1.993-0.018c-0.104-0.41-0.19-0.825-0.23-1.244	c-0.153-1.526-0.056-3.786,0.29-4.925c-0.968-1.045-1.51-3.062-1.382-4.118c-0.568-0.575-1.165-1.14-1.609-1.848	c-0.836-1.064-0.105-2.932,1.33-2.864c1.271,0.106,2.299,0.972,3.204,1.789c1.002-0.089,2.988,0.611,4.101,1.363	c2.522,1.638,3.849,4.45,5.29,6.983c0.562,1.15,1.57,3.094,1.544,4.021c2.566,0.795,5.466,1.756,6.929,4.188	c0.026,0.048,0.001,0.11-0.052,0.125l-3.988,1.251L51.996,36.775z M37.334,19.456l-1.145-1.635	C38.642,17.604,37.334,19.458,37.334,19.456z"/><linearGradient id="3Ws1XkshDxMpX8svHB-Rnb" x1="24.565" x2="24.565" y1="10.318" y2="53.964" gradientUnits="userSpaceOnUse"><stop offset="0" stop-color="#6dc7ff"/><stop offset="1" stop-color="#e6abff"/></linearGradient><path fill="url(#3Ws1XkshDxMpX8svHB-Rnb)" d="M37.826,37.558c-1.056-2.035-2.844-3.729-5.169-4.901l-1.676-0.843	c-2.586-1.299-4.582-3.201-5.771-5.495c-0.956-1.841-1.46-3.918-1.46-6.006c0-3.952,1.8-7.571,4.675-9.995	C17.992,12.034,9.999,21.09,9.999,32.001c0,11.887,9.484,21.579,21.279,21.963c4.622-1.605,7.853-6.021,7.853-11.034	C39.131,41.034,38.692,39.227,37.826,37.558z M31.975,50.518c-1.271-0.106-2.299-0.972-3.204-1.789	c-1.002,0.089-2.988-0.611-4.1-1.363c-2.522-1.638-3.849-4.45-5.29-6.983c-0.562-1.15-1.57-3.094-1.544-4.021	c-2.566-0.795-5.466-1.756-6.929-4.188c-0.026-0.048-0.001-0.11,0.052-0.125l3.988-1.251l-2.642-4.125	c-0.045-0.066,0.065-0.15,0.115-0.074c1.067,1.275,2.775,2.515,3.863,4.311c0.153,0.253,0.073,0.56-0.186,0.697	c-1.396,0.747-1.64,0.611-3.046,1.218c1.375,1.375,2.801,1.87,5.062,2.439c0.443,0.092,0.697,0.463,0.771,0.872	c0.121,0.444,0.378,1.196,0.648,1.797c1.954,3.948,4.389,9.11,9.331,9.498c0.326,0.004,0.637,0.136,0.853,0.353	c0.623,0.594,1.495,1.33,2.296,1.451c0.158-0.015,0.078,0.038,0.201-0.074c0.32-0.375,0.256-0.389,0.036-0.866	c-0.297-0.507-0.863-1.088-1.42-1.661c-0.565-0.73-0.173-1.799-0.544-2.618c-0.153-0.582-0.473-1.269-0.829-1.69	c-0.172-0.221-0.224-0.502-0.171-0.756c0.396-1.893,0.675-3.935,0.292-5.832c-0.008-0.202-0.206-0.278-0.352-0.205	c-0.045,0.036-0.044,0.011-0.22,0.32c-0.217,0.479-1.756,3.424-2.203,2.47c-0.65-2.115-1.554-6.229-3.468-7.501	c-0.081-0.034-0.018-0.168,0.062-0.122c1.999,1.033,3.618,3.688,4.095,5.478c0.371-0.032,0.704-0.333,0.891-0.678	c0.282-0.989,1.733-1.04,1.992,0.018c0.105,0.41,0.19,0.825,0.23,1.244c0.153,1.526,0.056,3.786-0.29,4.925	c0.968,1.045,1.51,3.062,1.382,4.118c0.568,0.575,1.165,1.14,1.609,1.848C34.141,48.718,33.409,50.585,31.975,50.518z M26.969,43.994l1.145,1.635C25.661,45.848,26.97,43.994,26.969,43.994z"/><linearGradient id="3Ws1XkshDxMpX8svHB-Rnc" x1="32" x2="32" y1="-584" y2="-636" gradientTransform="matrix(1 0 0 -1 0 -578)" gradientUnits="userSpaceOnUse"><stop offset="0" stop-color="#1a6dff"/><stop offset="1" stop-color="#c822ff"/></linearGradient><path fill="url(#3Ws1XkshDxMpX8svHB-Rnc)" d="M32,58C17.663,58,6,46.337,6,32S17.663,6,32,6s26,11.663,26,26S46.337,58,32,58z M32,8	C18.767,8,8,18.767,8,32s10.767,24,24,24s24-10.767,24-24S45.233,8,32,8z"/></svg>