<svg xmlns="http://www.w3.org/2000/svg"  viewBox="0 0 64 64" width="64px" height="64px"><linearGradient id="hB4lAKTjWfP_xas2qXWp_a" x1="29" x2="29" y1="28" y2="36" gradientUnits="userSpaceOnUse" spreadMethod="reflect"><stop offset="0" stop-color="#1a6dff"/><stop offset="1" stop-color="#c822ff"/></linearGradient><path fill="url(#hB4lAKTjWfP_xas2qXWp_a)" d="M27.75,33.333h3.451l-2.201-4L25.355,36H24l4.18-7.513C28.361,28.184,28.664,28,29,28 c0.325,0,0.628,0.177,0.804,0.475L34,36h-1.329l-0.737-1.333H29L27.75,33.333z"/><linearGradient id="hB4lAKTjWfP_xas2qXWp_b" x1="50" x2="50" y1="28" y2="35.999" gradientUnits="userSpaceOnUse" spreadMethod="reflect"><stop offset="0" stop-color="#1a6dff"/><stop offset="1" stop-color="#c822ff"/></linearGradient><path fill="url(#hB4lAKTjWfP_xas2qXWp_b)" d="M47.333,34.667V28H46v7.233c0,0.197,0.076,0.389,0.224,0.536 c0.147,0.147,0.345,0.229,0.561,0.229h5.881L54,34.665h-6.667V34.667z"/><linearGradient id="hB4lAKTjWfP_xas2qXWp_c" x1="18.5" x2="18.5" y1="28" y2="36" gradientUnits="userSpaceOnUse" spreadMethod="reflect"><stop offset="0" stop-color="#1a6dff"/><stop offset="1" stop-color="#c822ff"/></linearGradient><path fill="url(#hB4lAKTjWfP_xas2qXWp_c)" d="M20.492,33.333c1.44,0,2.508-1.132,2.508-2.627C23,29.212,21.932,28,20.492,28H14v8h1.286 v-6.667h5.107c0.689,0,1.322,0.659,1.322,1.373c0,0.715-0.633,1.296-1.322,1.296L16.571,32l4.635,4H23l-3.186-2.667H20.492z"/><linearGradient id="hB4lAKTjWfP_xas2qXWp_d" x1="7" x2="7" y1="28" y2="36" gradientUnits="userSpaceOnUse" spreadMethod="reflect"><stop offset="0" stop-color="#1a6dff"/><stop offset="1" stop-color="#c822ff"/></linearGradient><path fill="url(#hB4lAKTjWfP_xas2qXWp_d)" d="M9,28H5.001C2.792,28,1,29.903,1,32.111S2.792,36,5.001,36H9c2.209,0,4-1.788,4-3.997 C13,29.793,11.209,28,9,28z M9.025,34.667H4.975c-1.459,0-2.641-1.191-2.641-2.664c0-1.473,1.183-2.669,2.641-2.669h4.052 c1.459,0,2.64,1.197,2.64,2.669C11.667,33.475,10.485,34.667,9.025,34.667z"/><linearGradient id="hB4lAKTjWfP_xas2qXWp_e" x1="7" x2="7" y1="29.33" y2="34.67" gradientUnits="userSpaceOnUse" spreadMethod="reflect"><stop offset="0" stop-color="#6dc7ff"/><stop offset="1" stop-color="#e6abff"/></linearGradient><path fill="url(#hB4lAKTjWfP_xas2qXWp_e)" d="M11.667,32c0,1.47-1.177,2.67-2.646,2.67H4.979c-1.458,0-2.646-1.19-2.646-2.67 c0-1.47,1.187-2.67,2.646-2.67h4.052C10.49,29.33,11.667,30.53,11.667,32z"/><linearGradient id="hB4lAKTjWfP_xas2qXWp_f" x1="39" x2="39" y1="28" y2="36" gradientUnits="userSpaceOnUse" spreadMethod="reflect"><stop offset="0" stop-color="#1a6dff"/><stop offset="1" stop-color="#c822ff"/></linearGradient><path fill="url(#hB4lAKTjWfP_xas2qXWp_f)" d="M44,34.667h-6.274c-1.368,0-2.476-1.191-2.476-2.664c0-1.473,1.109-2.669,2.476-2.669h5.024 L44,28h-6.249C35.68,28,34,29.791,34,32s1.68,4,3.751,4h4.999L44,34.667z"/><linearGradient id="hB4lAKTjWfP_xas2qXWp_g" x1="59" x2="59" y1="28" y2="36" gradientUnits="userSpaceOnUse" spreadMethod="reflect"><stop offset="0" stop-color="#1a6dff"/><stop offset="1" stop-color="#c822ff"/></linearGradient><path fill="url(#hB4lAKTjWfP_xas2qXWp_g)" d="M64,31.333c0,0-6.369,0-8.661,0c0.278-1.148,1.236-2,2.388-2h5.024L64,28h-6.249 C55.68,28,54,29.791,54,32s1.68,4,3.751,4h4.999L64,34.667h-6.274c-1.154,0-2.114-0.851-2.389-2h7.412L64,31.333z"/></svg>