<svg xmlns="http://www.w3.org/2000/svg"  viewBox="0 0 64 64" width="64px" height="64px" baseProfile="basic"><path fill="#fff" d="M56.999,38.108c0-0.758-2.007-1.373-4.487-1.373c-2.157,0-3.952,0.465-4.384,1.085 c-4.269-2.017-8.539-4.033-12.808-6.051c-1.486-0.702-3.182-0.695-4.664,0.017c-4.545,2.187-9.09,4.374-13.635,6.561 c-1.029-0.15-2.27-0.239-3.609-0.239C9.867,38.108,7,38.722,7,39.48v4.119c0,0.039,0.039,0.076,0.054,0.114 c-0.174,0.661,0.083,1.434,0.773,1.759c6.715,3.173,13.43,6.344,20.145,9.516c1.705,0.806,3.652,0.799,5.352-0.019 c7.669-3.69,15.338-7.38,23.008-11.07c0.576-0.277,0.775-0.936,0.606-1.484c0.027-0.063,0.062-0.125,0.062-0.19V38.108z"/><linearGradient id="4rS27LUod4-wzQtoDl9XFa" x1="31.999" x2="31.999" y1="56.589" y2="30.246" gradientUnits="userSpaceOnUse"><stop offset="0" stop-color="#c822ff"/><stop offset="1" stop-color="#1a6dff"/></linearGradient><path fill="url(#4rS27LUod4-wzQtoDl9XFa)" d="M30.627,56.589c-1.052,0-2.103-0.231-3.083-0.695L7.399,46.377 c-0.969-0.456-1.513-1.501-1.38-2.572C6.008,43.742,6,43.673,6,43.6V39.48c0-2.063,4.644-2.373,7.411-2.374 c1.218,0,2.402,0.071,3.447,0.207l13.364-6.43c1.755-0.844,3.77-0.85,5.524-0.02l12.236,5.78c1.086-0.659,2.938-0.909,4.529-0.909 c0.916,0,5.486,0.114,5.486,2.372v4.118c0,0.091-0.011,0.174-0.025,0.248c0.143,0.964-0.329,1.905-1.208,2.328l-23.009,11.07 C32.763,56.35,31.695,56.589,30.627,56.589z M8,43.391c0.063,0.187,0.071,0.388,0.021,0.578c-0.046,0.175-0.022,0.479,0.231,0.6 l20.146,9.517c1.43,0.678,3.065,0.67,4.491-0.016l23.009-11.07c0.113-0.055,0.105-0.218,0.083-0.289 c-0.064-0.21-0.058-0.435,0.018-0.64v-3.732c-0.392-0.243-1.622-0.603-3.486-0.603c-2.064,0-3.351,0.441-3.581,0.678 c-0.279,0.398-0.791,0.519-1.23,0.311l-12.809-6.051c-1.208-0.57-2.595-0.567-3.803,0.014l-13.636,6.561 c-0.179,0.086-0.381,0.116-0.578,0.088c-1.023-0.149-2.222-0.229-3.465-0.229c-2.922,0.001-4.81,0.417-5.411,0.704V43.391z"/><linearGradient id="4rS27LUod4-wzQtoDl9XFb" x1="32" x2="32" y1="50.391" y2="27.352" gradientUnits="userSpaceOnUse"><stop offset="0" stop-color="#e6abff"/><stop offset="1" stop-color="#6dc7ff"/></linearGradient><path fill="url(#4rS27LUod4-wzQtoDl9XFb)" d="M27.971,49.824c-6.715-3.002-13.43-6.005-20.145-9.007c-1.098-0.49-1.102-2.056-0.008-2.555 c7.613-3.467,15.225-6.933,22.838-10.4c1.481-0.675,3.179-0.681,4.664-0.017c7.001,3.131,14.003,6.261,21.004,9.391 c0.898,0.401,0.902,1.683,0.007,2.09c-7.669,3.493-15.338,6.986-23.008,10.477C31.624,50.579,29.676,50.586,27.971,49.824z"/><linearGradient id="4rS27LUod4-wzQtoDl9XFc" x1="32.001" x2="32.001" y1="51.391" y2="26.353" gradientUnits="userSpaceOnUse"><stop offset="0" stop-color="#c822ff"/><stop offset="1" stop-color="#1a6dff"/></linearGradient><path fill="url(#4rS27LUod4-wzQtoDl9XFc)" d="M30.626,51.391c-1.044,0-2.088-0.218-3.063-0.653l0,0L7.418,41.73 c-0.871-0.39-1.414-1.227-1.417-2.184c-0.004-0.958,0.534-1.799,1.403-2.194l22.838-10.4c1.739-0.792,3.739-0.8,5.486-0.02 l21.004,9.392c0.779,0.349,1.265,1.097,1.268,1.953s-0.478,1.607-1.254,1.961L33.737,50.715 C32.75,51.165,31.688,51.391,30.626,51.391z M28.38,48.911c1.441,0.646,3.093,0.639,4.528-0.017l23.01-10.477 C55.94,38.407,56,38.38,56,38.284c0-0.097-0.062-0.124-0.084-0.134l-21.004-9.392c-1.222-0.548-2.621-0.542-3.841,0.014 l-22.839,10.4C8.03,39.266,8,39.442,8,39.54c0.001,0.097,0.031,0.273,0.234,0.364L28.38,48.911z"/><path fill="#fff" d="M56.999,29.011c0-0.758-2.007-1.373-4.487-1.373c-2.157,0-3.952,0.465-4.384,1.085 c-4.269-2.017-8.539-4.033-12.808-6.051c-1.486-0.702-3.182-0.695-4.664,0.017c-4.545,2.187-9.09,4.374-13.635,6.561 c-1.029-0.15-2.27-0.239-3.609-0.239C9.867,29.011,7,29.627,7,30.385v4.119c0,0.039,0.039,0.076,0.054,0.114 c-0.174,0.661,0.083,1.434,0.773,1.759c6.715,3.173,13.43,6.344,20.145,9.516c1.705,0.806,3.652,0.799,5.352-0.019 c7.669-3.69,15.338-7.38,23.008-11.07c0.576-0.277,0.775-0.936,0.606-1.484c0.027-0.063,0.062-0.125,0.062-0.19V29.011z"/><linearGradient id="4rS27LUod4-wzQtoDl9XFd" x1="32" x2="32" y1="47.494" y2="21.15" gradientUnits="userSpaceOnUse"><stop offset="0" stop-color="#c822ff"/><stop offset="1" stop-color="#1a6dff"/></linearGradient><path fill="url(#4rS27LUod4-wzQtoDl9XFd)" d="M30.627,47.494c-1.051,0-2.102-0.231-3.083-0.695L7.399,37.282 c-0.969-0.457-1.513-1.503-1.379-2.573C6.008,34.646,6,34.578,6,34.504v-4.119c0-2.063,4.643-2.373,7.41-2.375 c1.213,0,2.397,0.071,3.448,0.208l13.364-6.431c1.755-0.844,3.77-0.85,5.524-0.02l12.235,5.781c1.087-0.66,2.939-0.91,4.53-0.91 c0.916,0,5.486,0.114,5.486,2.373v4.118c0,0.091-0.011,0.174-0.025,0.248c0.144,0.964-0.329,1.905-1.208,2.329L33.757,46.776 C32.764,47.255,31.695,47.494,30.627,47.494z M8,34.295c0.063,0.187,0.071,0.387,0.021,0.577c-0.046,0.176-0.022,0.481,0.232,0.602 l20.146,9.517c1.43,0.676,3.065,0.671,4.491-0.017l23.009-11.069c0.113-0.055,0.105-0.218,0.083-0.288 c-0.064-0.21-0.058-0.435,0.018-0.641v-3.733c-0.392-0.244-1.622-0.604-3.486-0.604c-2.063,0-3.351,0.441-3.581,0.678 c-0.279,0.4-0.791,0.52-1.23,0.312l-12.809-6.052c-1.208-0.57-2.595-0.567-3.803,0.014L17.454,30.15 c-0.179,0.087-0.379,0.116-0.577,0.088c-1.03-0.149-2.229-0.229-3.466-0.229C10.49,30.012,8.602,30.429,8,30.716V34.295z"/><linearGradient id="4rS27LUod4-wzQtoDl9XFe" x1="32" x2="32" y1="41.295" y2="18.256" gradientUnits="userSpaceOnUse"><stop offset="0" stop-color="#e6abff"/><stop offset="1" stop-color="#6dc7ff"/></linearGradient><path fill="url(#4rS27LUod4-wzQtoDl9XFe)" d="M27.971,40.728c-6.715-3.002-13.43-6.005-20.145-9.007c-1.098-0.49-1.102-2.056-0.008-2.555 c7.613-3.467,15.225-6.933,22.838-10.4c1.481-0.675,3.179-0.681,4.664-0.017c7.001,3.131,14.003,6.261,21.004,9.391 c0.898,0.401,0.902,1.683,0.007,2.09c-7.669,3.493-15.338,6.986-23.008,10.477C31.624,41.484,29.676,41.491,27.971,40.728z"/><linearGradient id="4rS27LUod4-wzQtoDl9XFf" x1="32.001" x2="32.001" y1="42.295" y2="17.256" gradientUnits="userSpaceOnUse"><stop offset="0" stop-color="#c822ff"/><stop offset="1" stop-color="#1a6dff"/></linearGradient><path fill="url(#4rS27LUod4-wzQtoDl9XFf)" d="M30.626,42.295c-1.045,0-2.089-0.218-3.063-0.654L7.418,32.634 c-0.87-0.389-1.414-1.225-1.417-2.182c-0.004-0.958,0.533-1.8,1.402-2.196l22.839-10.399c1.739-0.794,3.741-0.8,5.486-0.02 l21.004,9.392c0.778,0.348,1.265,1.096,1.268,1.951c0.003,0.856-0.478,1.608-1.254,1.962L33.737,41.619 C32.75,42.069,31.688,42.295,30.626,42.295z M33.007,19.256c-0.661,0-1.321,0.141-1.936,0.421L8.232,30.076 C8.03,30.169,8,30.347,8,30.444c0.001,0.097,0.031,0.273,0.234,0.363l20.146,9.007c0,0,0,0,0.001,0.001 c1.438,0.644,3.089,0.64,4.527-0.017l23.01-10.478c0.022-0.011,0.083-0.038,0.082-0.134c0-0.096-0.061-0.122-0.083-0.133 l-21.005-9.392C34.307,19.392,33.656,19.256,33.007,19.256z"/><path fill="#fff" d="M56.999,19.916c0-0.758-2.007-1.373-4.487-1.373c-2.157,0-3.952,0.465-4.384,1.085 c-4.269-2.017-8.539-4.033-12.808-6.051c-1.486-0.702-3.182-0.695-4.664,0.017c-4.545,2.187-9.09,4.374-13.635,6.561 c-1.029-0.15-2.27-0.239-3.609-0.239C9.867,19.916,7,20.531,7,21.289c0,0,0,2.586,0,4.461c0,0.625,0.137,1.207,0.827,1.532 c6.715,3.173,13.43,6.344,20.145,9.516c1.705,0.806,3.652,0.799,5.352-0.019c7.669-3.69,15.338-7.38,23.008-11.07 C56.908,25.432,57,24.75,57,24.25C57.062,23.025,56.999,19.916,56.999,19.916z"/><linearGradient id="4rS27LUod4-wzQtoDl9XFg" x1="32.014" x2="32.014" y1="38.398" y2="12.055" gradientUnits="userSpaceOnUse"><stop offset="0" stop-color="#c822ff"/><stop offset="1" stop-color="#1a6dff"/></linearGradient><path fill="url(#4rS27LUod4-wzQtoDl9XFg)" d="M30.627,38.397c-1.052,0-2.103-0.231-3.083-0.695L7.399,28.186 C6.471,27.748,6,26.929,6,25.75v-4.461c0-2.063,4.644-2.373,7.411-2.374c1.218,0,2.402,0.071,3.447,0.207l13.364-6.43 c1.755-0.843,3.77-0.851,5.524-0.02l12.236,5.78c1.086-0.659,2.938-0.909,4.529-0.909c0.914,0,5.469,0.114,5.486,2.359 c0.004,0.208,0.063,3.17,0,4.397c0.001,1.409-0.67,2.038-1.233,2.31l-23.009,11.07C32.763,38.158,31.695,38.397,30.627,38.397z M8,21.619v4.131c0,0.508,0.111,0.561,0.252,0.627l20.146,9.517c1.43,0.677,3.065,0.671,4.491-0.016l23.009-11.07 C55.901,24.807,56,24.69,56,24.25c0.052-1.036,0.016-3.382,0.003-4.101c-0.387-0.244-1.62-0.605-3.49-0.605 c-2.064,0-3.351,0.441-3.581,0.678c-0.279,0.399-0.791,0.519-1.23,0.311l-12.809-6.051c-1.208-0.57-2.595-0.567-3.803,0.014 l-13.636,6.561c-0.179,0.087-0.381,0.117-0.578,0.088c-1.023-0.149-2.222-0.229-3.465-0.229C10.489,20.916,8.602,21.332,8,21.619z"/><g><path fill="#fff" d="M27.971,31.633c-6.715-3.002-13.43-6.005-20.145-9.007c-1.098-0.49-1.102-2.056-0.008-2.555 c7.613-3.467,15.225-6.933,22.838-10.4c1.481-0.675,3.179-0.681,4.664-0.017c7.001,3.131,14.003,6.261,21.004,9.391 c0.898,0.401,0.902,1.683,0.007,2.09c-7.669,3.493-15.338,6.986-23.008,10.477C31.624,32.389,29.676,32.395,27.971,31.633z"/><linearGradient id="4rS27LUod4-wzQtoDl9XFh" x1="32.001" x2="32.001" y1="33.199" y2="8.161" gradientUnits="userSpaceOnUse"><stop offset="0" stop-color="#c822ff"/><stop offset="1" stop-color="#1a6dff"/></linearGradient><path fill="url(#4rS27LUod4-wzQtoDl9XFh)" d="M30.627,33.199c-1.044,0-2.089-0.218-3.063-0.653L7.418,23.539 c-0.87-0.389-1.414-1.225-1.417-2.182c-0.004-0.958,0.533-1.8,1.402-2.196l22.839-10.4c1.739-0.793,3.739-0.8,5.486-0.02 l21.004,9.392c0.779,0.349,1.265,1.097,1.268,1.953s-0.478,1.607-1.254,1.961L33.737,32.523 C32.751,32.974,31.688,33.199,30.627,33.199z M28.38,30.72c1.44,0.644,3.092,0.64,4.528-0.017l23.01-10.477 C55.94,20.216,56,20.188,56,20.093c0-0.097-0.062-0.124-0.084-0.134l-21.004-9.392c-1.222-0.547-2.621-0.543-3.841,0.014 l-22.839,10.4C8.03,21.074,8,21.252,8,21.35c0.001,0.097,0.031,0.273,0.234,0.363L28.38,30.72z"/></g><linearGradient id="4rS27LUod4-wzQtoDl9XFi" x1="20.175" x2="20.175" y1="23" y2="18" gradientUnits="userSpaceOnUse"><stop offset="0" stop-color="#e6abff"/><stop offset="1" stop-color="#6dc7ff"/></linearGradient><path fill="url(#4rS27LUod4-wzQtoDl9XFi)" d="M26.351,20.508c-0.002,1.244-3.288,2.456-6.063,2.491c-2.88,0.036-6.277-1.186-6.288-2.449	c-0.011-1.267,3.383-2.581,6.323-2.549C23.1,18.029,26.355,19.269,26.351,20.508z"/><linearGradient id="4rS27LUod4-wzQtoDl9XFj" x1="28.845" x2="28.845" y1="29" y2="23.429" gradientUnits="userSpaceOnUse"><stop offset="0" stop-color="#e6abff"/><stop offset="1" stop-color="#6dc7ff"/></linearGradient><path fill="url(#4rS27LUod4-wzQtoDl9XFj)" d="M22.691,25.349c2.849,1.217,5.696,2.434,8.545,3.651c1.255-1.857,2.509-3.714,3.764-5.571	C30.897,24.069,26.794,24.71,22.691,25.349z"/><linearGradient id="4rS27LUod4-wzQtoDl9XFk" x1="32.621" x2="32.621" y1="20" y2="13.048" gradientUnits="userSpaceOnUse"><stop offset="0" stop-color="#e6abff"/><stop offset="1" stop-color="#6dc7ff"/></linearGradient><path fill="url(#4rS27LUod4-wzQtoDl9XFk)" d="M30.183,15.341c-1.311,0.469-2.623,0.937-3.933,1.406c1.794,0.154,3.589,0.309,5.383,0.462	c0.571,0.931,1.142,1.862,1.713,2.791c0.351-0.844,0.702-1.689,1.054-2.533c1.531-0.117,3.062-0.234,4.593-0.351	c-1.187-0.49-2.374-0.981-3.561-1.472c0.302-0.711,0.605-1.422,0.907-2.134c-1.155,0.339-2.308,0.678-3.463,1.017	c-1.274-0.493-2.548-0.986-3.821-1.479C29.431,13.813,29.807,14.577,30.183,15.341z"/><linearGradient id="4rS27LUod4-wzQtoDl9XFl" x1="43.449" x2="43.449" y1="23.483" y2="17.375" gradientUnits="userSpaceOnUse"><stop offset="0" stop-color="#e6abff"/><stop offset="1" stop-color="#6dc7ff"/></linearGradient><path fill="url(#4rS27LUod4-wzQtoDl9XFl)" d="M35.889,20.612c2.704-1.079,5.408-2.158,8.112-3.237c2.336,0.993,4.671,1.986,7.007,2.979	c-2.621,1.043-5.242,2.086-7.863,3.13C40.727,22.525,38.308,21.569,35.889,20.612z"/><linearGradient id="4rS27LUod4-wzQtoDl9XFm" x1="47.497" x2="47.497" y1="23.148" y2="17.45" gradientUnits="userSpaceOnUse"><stop offset="0" stop-color="#c822ff"/><stop offset="1" stop-color="#1a6dff"/></linearGradient><path fill="url(#4rS27LUod4-wzQtoDl9XFm)" d="M44.002,17.45c-0.006,1.9-0.012,3.799-0.018,5.699c2.342-0.932,4.683-1.863,7.025-2.795	C48.673,19.385,46.338,18.418,44.002,17.45z"/></svg>