<svg version="1.1" id="Layer_1" xmlns="http://www.w3.org/2000/svg" xmlns:xlink="http://www.w3.org/1999/xlink" x="0px" y="0px"
	 width="100%" viewBox="0 0 500 500" enable-background="new 0 0 500 500" xml:space="preserve">
<path fill="#272727" opacity="1.000000" stroke="none" 
	d="
M333.000000,501.000000 
	C222.000031,501.000000 111.500053,501.000000 1.000059,501.000000 
	C1.000040,334.333405 1.000040,167.666794 1.000020,1.000149 
	C167.666565,1.000099 334.333130,1.000099 500.999756,1.000050 
	C500.999847,167.666519 500.999847,334.333038 500.999939,500.999786 
	C445.166656,501.000000 389.333344,501.000000 333.000000,501.000000 
M197.789795,443.747528 
	C222.941071,451.066833 248.687912,453.221771 274.479279,449.662659 
	C338.611267,440.812561 388.378143,409.025970 422.428101,353.666138 
	C428.806549,343.295776 433.578613,331.937408 439.616455,319.997803 
	C405.277069,319.997803 372.667633,319.997803 340.058197,319.997803 
	C307.485474,319.997803 274.912750,319.997803 242.822723,319.997803 
	C240.479797,310.114349 243.569687,302.776184 248.992630,295.315857 
	C268.371735,268.656067 287.147705,241.557785 306.138489,214.615967 
	C306.842285,213.617523 307.406769,212.520905 308.434021,210.805771 
	C287.592438,210.805771 267.526855,210.805771 247.446228,210.805771 
	C247.446228,199.273117 247.446228,188.186966 247.446228,177.101089 
	C291.593658,177.101089 335.459106,177.101089 379.262543,177.101089 
	C380.583740,185.858994 378.931213,192.981979 373.657745,200.192734 
	C354.202637,226.794998 335.463287,253.920761 316.468292,280.859161 
	C315.508362,282.220490 314.674591,283.670746 313.234161,285.944427 
	C358.868164,285.944427 403.259094,285.944427 447.616089,285.944427 
	C463.886230,202.051819 420.960724,101.351776 320.601288,63.571499 
	C228.873901,29.040766 124.196861,66.626465 75.663445,154.955627 
	C30.337143,237.447983 52.284374,332.714172 103.955925,385.541779 
	C103.955925,315.702911 103.955925,246.346878 103.955925,176.695999 
	C125.066528,176.695999 145.704941,176.633209 166.340195,176.859055 
	C167.521423,176.871994 169.330078,179.060516 169.740784,180.542938 
	C172.980560,192.236313 175.936935,204.007996 179.008286,215.748322 
	C182.764191,230.105301 186.547043,244.455231 190.684814,260.203369 
	C191.463028,257.959198 191.829712,257.096069 192.063812,256.198364 
	C198.649872,230.943512 205.199890,205.679199 211.859589,180.443848 
	C212.219009,179.081879 213.424301,176.937897 214.330276,176.888458 
	C220.231033,176.566422 226.157913,176.723022 232.262329,176.723022 
	C232.262329,186.756943 231.850571,196.098221 232.364349,205.388336 
	C233.038635,217.580536 230.415604,229.201385 227.382095,240.781906 
	C223.043884,257.343292 218.457458,273.839752 213.954742,290.357880 
	C211.262131,300.235657 208.527039,310.101807 205.804276,319.997803 
	C194.987289,319.997803 184.659714,319.858612 174.339691,320.077332 
	C170.969955,320.148773 169.542175,319.356598 168.592972,315.816406 
	C160.887909,287.079163 152.893097,258.419586 144.973328,229.740005 
	C144.528046,228.127548 143.965973,226.547348 143.317245,224.509064 
	C142.532806,225.473129 142.150513,225.729813 142.171478,225.947662 
	C143.425461,238.978165 145.713486,251.997299 145.819611,265.034485 
	C146.230560,315.523499 145.959671,366.018219 145.890442,416.510712 
	C145.886627,419.287384 146.041046,421.418762 148.969910,423.080017 
	C164.218750,431.729156 180.079773,438.854156 197.789795,443.747528 
z"/>
<path fill="#FEFEFE" opacity="1.000000" stroke="none" 
	d="
M197.410706,443.597565 
	C180.079773,438.854156 164.218750,431.729156 148.969910,423.080017 
	C146.041046,421.418762 145.886627,419.287384 145.890442,416.510712 
	C145.959671,366.018219 146.230560,315.523499 145.819611,265.034485 
	C145.713486,251.997299 143.425461,238.978165 142.171478,225.947662 
	C142.150513,225.729813 142.532806,225.473129 143.317245,224.509064 
	C143.965973,226.547348 144.528046,228.127548 144.973328,229.740005 
	C152.893097,258.419586 160.887909,287.079163 168.592972,315.816406 
	C169.542175,319.356598 170.969955,320.148773 174.339691,320.077332 
	C184.659714,319.858612 194.987289,319.997803 205.804276,319.997803 
	C208.527039,310.101807 211.262131,300.235657 213.954742,290.357880 
	C218.457458,273.839752 223.043884,257.343292 227.382095,240.781906 
	C230.415604,229.201385 233.038635,217.580536 232.364349,205.388336 
	C231.850571,196.098221 232.262329,186.756943 232.262329,176.723022 
	C226.157913,176.723022 220.231033,176.566422 214.330276,176.888458 
	C213.424301,176.937897 212.219009,179.081879 211.859589,180.443848 
	C205.199890,205.679199 198.649872,230.943512 192.063812,256.198364 
	C191.829712,257.096069 191.463028,257.959198 190.684814,260.203369 
	C186.547043,244.455231 182.764191,230.105301 179.008286,215.748322 
	C175.936935,204.007996 172.980560,192.236313 169.740784,180.542938 
	C169.330078,179.060516 167.521423,176.871994 166.340195,176.859055 
	C145.704941,176.633209 125.066528,176.695999 103.955925,176.695999 
	C103.955925,246.346878 103.955925,315.702911 103.955925,385.541779 
	C52.284374,332.714172 30.337143,237.447983 75.663445,154.955627 
	C124.196861,66.626465 228.873901,29.040766 320.601288,63.571499 
	C420.960724,101.351776 463.886230,202.051819 447.616089,285.944427 
	C403.259094,285.944427 358.868164,285.944427 313.234161,285.944427 
	C314.674591,283.670746 315.508362,282.220490 316.468292,280.859161 
	C335.463287,253.920761 354.202637,226.794998 373.657745,200.192734 
	C378.931213,192.981979 380.583740,185.858994 379.262543,177.101089 
	C335.459106,177.101089 291.593658,177.101089 247.446228,177.101089 
	C247.446228,188.186966 247.446228,199.273117 247.446228,210.805771 
	C267.526855,210.805771 287.592438,210.805771 308.434021,210.805771 
	C307.406769,212.520905 306.842285,213.617523 306.138489,214.615967 
	C287.147705,241.557785 268.371735,268.656067 248.992630,295.315857 
	C243.569687,302.776184 240.479797,310.114349 242.822723,319.997803 
	C274.912750,319.997803 307.485474,319.997803 340.058197,319.997803 
	C372.667633,319.997803 405.277069,319.997803 439.616455,319.997803 
	C433.578613,331.937408 428.806549,343.295776 422.428101,353.666138 
	C388.378143,409.025970 338.611267,440.812561 274.479279,449.662659 
	C248.687912,453.221771 222.941071,451.066833 197.410706,443.597565 
M231.386871,237.948456 
	C230.688568,257.096924 229.990280,276.245422 229.291992,295.393890 
	C229.796661,295.462463 230.301331,295.531006 230.806015,295.599579 
	C244.861542,275.686920 258.997406,255.829895 272.873291,235.792831 
	C274.653931,233.221588 275.083313,229.714584 276.338745,226.058304 
	C260.996338,226.058304 247.073975,226.058304 232.823959,226.058304 
	C232.383591,229.822403 231.960999,233.434387 231.386871,237.948456 
M118.507454,160.773026 
	C133.975342,160.772949 149.443253,160.791229 164.911072,160.760223 
	C168.905701,160.752228 168.905563,160.681168 168.174927,156.861084 
	C146.772705,156.861084 125.368492,156.861084 103.964279,156.861084 
	C103.684822,157.297256 103.405357,157.733414 103.125900,158.169586 
	C104.262115,159.037018 105.340034,160.542191 106.545471,160.652390 
	C110.174248,160.984100 113.852684,160.772629 118.507454,160.773026 
M160.972794,339.562836 
	C160.550537,344.623871 160.128281,349.684906 159.684204,355.007416 
	C166.926636,355.257080 162.193756,348.829865 165.418991,346.773651 
	C166.105194,348.621033 166.635635,350.466919 167.476486,352.158539 
	C167.995224,353.202118 168.987122,354.010529 169.766602,354.924500 
	C170.497452,353.947723 171.415558,353.057739 171.917282,351.974792 
	C172.769882,350.134613 173.360260,348.172882 174.545364,344.940735 
	C175.638931,355.195251 175.638931,355.195251 179.703079,354.217255 
	C179.153915,348.507477 178.603745,342.787170 178.054825,337.079926 
	C170.222214,335.821594 173.160507,343.956207 169.287170,346.032135 
	C168.308167,343.591339 167.541260,341.018860 166.284088,338.713745 
	C164.743774,335.889404 162.792648,335.489777 160.972794,339.562836 
M299.389496,343.313843 
	C297.070618,340.806976 296.868469,335.509583 291.001801,337.260651 
	C291.001801,342.185242 291.109985,347.159912 290.965118,352.127228 
	C290.862640,355.641327 292.616150,355.394806 295.472290,354.441772 
	C295.472290,351.469818 295.472290,348.489960 295.472290,345.458984 
	C299.989014,347.964935 299.254791,355.837860 306.502838,354.884827 
	C306.502838,348.766296 306.502838,342.997223 306.502838,336.925964 
	C298.548126,336.685120 305.015930,344.189362 301.257874,345.965820 
	C300.792358,345.297058 300.325378,344.626221 299.389496,343.313843 
M329.203033,344.557007 
	C329.203033,347.978149 329.203033,351.399323 329.203033,355.457397 
	C333.209167,354.953583 336.946686,355.436279 339.597443,353.963257 
	C346.299500,350.238892 337.074860,344.886230 340.190765,340.323639 
	C340.286499,340.183472 337.725311,337.547974 336.115631,337.093994 
	C334.040222,336.508667 331.674835,336.951477 329.203033,336.951477 
	C329.203033,339.635712 329.203033,341.614288 329.203033,344.557007 
M211.259262,348.409393 
	C211.444443,350.517639 211.629608,352.625854 211.839706,355.017883 
	C213.248398,354.893066 214.450668,354.786560 215.665222,354.678925 
	C215.665222,348.657257 215.665222,343.055084 215.665222,337.166748 
	C214.292206,337.166748 213.087143,337.166748 211.744339,337.166748 
	C211.595230,339.478149 211.460159,341.572296 211.326996,343.636475 
	C209.356216,343.636475 207.652298,343.636475 205.969604,343.636475 
	C205.711075,336.901611 205.711075,336.901611 201.809814,337.487244 
	C201.809814,343.227234 201.809814,348.971008 201.809814,355.037476 
	C203.277405,354.887115 204.475235,354.764374 205.885651,354.619843 
	C205.885651,352.287476 205.885651,350.338806 205.885651,347.925812 
	C207.575897,347.925812 209.014435,347.925812 211.259262,348.409393 
M182.140106,351.667419 
	C181.832886,352.673859 181.525650,353.680298 180.857086,355.870422 
	C183.205658,354.831543 184.890686,354.566071 185.822357,353.585114 
	C188.749023,350.503571 191.418381,350.542114 194.476440,353.634125 
	C195.434250,354.602570 197.253922,354.718658 199.629791,355.562592 
	C197.118134,349.354553 195.231277,344.405792 193.075623,339.577087 
	C192.579849,338.466522 191.177261,337.094391 190.162827,337.070312 
	C189.159805,337.046478 187.682434,338.371826 187.175522,339.460327 
	C185.429001,343.210602 184.015839,347.116089 182.140106,351.667419 
M230.050354,339.259644 
	C228.420197,335.955658 226.125565,335.405273 224.464920,338.829529 
	C221.995529,343.921417 220.183655,349.332184 217.520065,356.049408 
	C220.222870,354.831207 221.898300,354.552063 222.828735,353.568329 
	C225.736267,350.494232 228.404846,350.545502 231.484299,353.650269 
	C232.438904,354.612701 234.261581,354.714142 236.639481,355.541077 
	C234.174316,349.491333 232.240250,344.744995 230.050354,339.259644 
M280.309387,353.796722 
	C278.356293,348.885040 276.487701,343.936523 274.377350,339.093414 
	C273.965363,338.147949 272.621582,337.053650 271.695160,337.042297 
	C270.758545,337.030823 269.348297,338.076721 268.937408,339.008575 
	C266.687347,344.111145 264.680817,349.321075 262.590637,354.494141 
	C262.834595,354.825012 263.078583,355.155853 263.322571,355.486725 
	C264.686157,354.799744 266.378571,354.416809 267.349548,353.366730 
	C269.900330,350.608154 273.279480,350.635773 275.916626,353.285187 
	C276.885193,354.258270 278.852966,354.236755 280.309387,353.796722 
M322.919586,354.577332 
	C324.239227,354.710052 325.558868,354.842804 327.395721,355.027557 
	C325.057281,349.204132 323.111053,344.109436 320.921844,339.121429 
	C320.499847,338.159882 319.143341,337.066284 318.185974,337.035736 
	C317.245667,337.005707 315.786346,338.042725 315.380890,338.971924 
	C313.137756,344.112854 311.146942,349.363892 309.069672,354.577179 
	C309.306793,354.902832 309.543945,355.228455 309.781067,355.554108 
	C311.219727,354.711365 312.937256,354.133362 314.039948,352.971680 
	C316.449341,350.433411 320.105438,350.677185 322.919586,354.577332 
M250.073257,346.453003 
	C248.475403,349.110046 246.877563,351.767090 245.083740,354.750000 
	C250.532486,354.750000 255.423889,354.750000 260.627716,354.750000 
	C260.181793,348.856201 255.215973,352.662628 252.796387,350.395508 
	C255.312775,346.257294 257.926697,341.958710 260.859619,337.135498 
	C255.496933,337.135498 250.934158,337.135498 246.176682,337.135498 
	C245.854980,343.134888 251.145676,338.919678 252.995102,341.454651 
	C252.258728,342.743439 251.376465,344.287537 250.073257,346.453003 
M286.980530,340.686035 
	C286.649628,336.882782 286.649628,336.882782 283.175201,337.610718 
	C283.175201,343.363678 283.175201,349.091156 283.175201,354.731079 
	C284.550201,354.731079 285.613586,354.731079 286.980591,354.731079 
	C286.980591,350.196503 286.980591,345.918945 286.980530,340.686035 
z"/>
<path fill="#292929" opacity="1.000000" stroke="none" 
	d="
M231.462646,237.497421 
	C231.960999,233.434387 232.383591,229.822403 232.823959,226.058304 
	C247.073975,226.058304 260.996338,226.058304 276.338745,226.058304 
	C275.083313,229.714584 274.653931,233.221588 272.873291,235.792831 
	C258.997406,255.829895 244.861542,275.686920 230.806015,295.599579 
	C230.301331,295.531006 229.796661,295.462463 229.291992,295.393890 
	C229.990280,276.245422 230.688568,257.096924 231.462646,237.497421 
z"/>
<path fill="#3C3C3C" opacity="1.000000" stroke="none" 
	d="
M118.009598,160.773010 
	C113.852684,160.772629 110.174248,160.984100 106.545471,160.652390 
	C105.340034,160.542191 104.262115,159.037018 103.125900,158.169586 
	C103.405357,157.733414 103.684822,157.297256 103.964279,156.861084 
	C125.368492,156.861084 146.772705,156.861084 168.174927,156.861084 
	C168.905563,160.681168 168.905701,160.752228 164.911072,160.760223 
	C149.443253,160.791229 133.975342,160.772949 118.009598,160.773010 
z"/>
<path fill="#323232" opacity="1.000000" stroke="none" 
	d="
M160.995483,339.122620 
	C162.792648,335.489777 164.743774,335.889404 166.284088,338.713745 
	C167.541260,341.018860 168.308167,343.591339 169.287170,346.032135 
	C173.160507,343.956207 170.222214,335.821594 178.054825,337.079926 
	C178.603745,342.787170 179.153915,348.507477 179.703079,354.217255 
	C175.638931,355.195251 175.638931,355.195251 174.545364,344.940735 
	C173.360260,348.172882 172.769882,350.134613 171.917282,351.974792 
	C171.415558,353.057739 170.497452,353.947723 169.766602,354.924500 
	C168.987122,354.010529 167.995224,353.202118 167.476486,352.158539 
	C166.635635,350.466919 166.105194,348.621033 165.418991,346.773651 
	C162.193756,348.829865 166.926636,355.257080 159.684204,355.007416 
	C160.128281,349.684906 160.550537,344.623871 160.995483,339.122620 
z"/>
<path fill="#383838" opacity="1.000000" stroke="none" 
	d="
M299.623962,343.634583 
	C300.325378,344.626221 300.792358,345.297058 301.257874,345.965820 
	C305.015930,344.189362 298.548126,336.685120 306.502838,336.925964 
	C306.502838,342.997223 306.502838,348.766296 306.502838,354.884827 
	C299.254791,355.837860 299.989014,347.964935 295.472290,345.458984 
	C295.472290,348.489960 295.472290,351.469818 295.472290,354.441772 
	C292.616150,355.394806 290.862640,355.641327 290.965118,352.127228 
	C291.109985,347.159912 291.001801,342.185242 291.001801,337.260651 
	C296.868469,335.509583 297.070618,340.806976 299.623962,343.634583 
z"/>
<path fill="#333333" opacity="1.000000" stroke="none" 
	d="
M329.203033,344.074921 
	C329.203033,341.614288 329.203033,339.635712 329.203033,336.951477 
	C331.674835,336.951477 334.040222,336.508667 336.115631,337.093994 
	C337.725311,337.547974 340.286499,340.183472 340.190765,340.323639 
	C337.074860,344.886230 346.299500,350.238892 339.597443,353.963257 
	C336.946686,355.436279 333.209167,354.953583 329.203033,355.457397 
	C329.203033,351.399323 329.203033,347.978149 329.203033,344.074921 
z"/>
<path fill="#363636" opacity="1.000000" stroke="none" 
	d="
M210.856110,348.167603 
	C209.014435,347.925812 207.575897,347.925812 205.885651,347.925812 
	C205.885651,350.338806 205.885651,352.287476 205.885651,354.619843 
	C204.475235,354.764374 203.277405,354.887115 201.809814,355.037476 
	C201.809814,348.971008 201.809814,343.227234 201.809814,337.487244 
	C205.711075,336.901611 205.711075,336.901611 205.969604,343.636475 
	C207.652298,343.636475 209.356216,343.636475 211.326996,343.636475 
	C211.460159,341.572296 211.595230,339.478149 211.744339,337.166748 
	C213.087143,337.166748 214.292206,337.166748 215.665222,337.166748 
	C215.665222,343.055084 215.665222,348.657257 215.665222,354.678925 
	C214.450668,354.786560 213.248398,354.893066 211.839706,355.017883 
	C211.629608,352.625854 211.444443,350.517639 210.856110,348.167603 
z"/>
<path fill="#333333" opacity="1.000000" stroke="none" 
	d="
M182.307892,351.314941 
	C184.015839,347.116089 185.429001,343.210602 187.175522,339.460327 
	C187.682434,338.371826 189.159805,337.046478 190.162827,337.070312 
	C191.177261,337.094391 192.579849,338.466522 193.075623,339.577087 
	C195.231277,344.405792 197.118134,349.354553 199.629791,355.562592 
	C197.253922,354.718658 195.434250,354.602570 194.476440,353.634125 
	C191.418381,350.542114 188.749023,350.503571 185.822357,353.585114 
	C184.890686,354.566071 183.205658,354.831543 180.857086,355.870422 
	C181.525650,353.680298 181.832886,352.673859 182.307892,351.314941 
z"/>
<path fill="#333333" opacity="1.000000" stroke="none" 
	d="
M230.178284,339.629150 
	C232.240250,344.744995 234.174316,349.491333 236.639481,355.541077 
	C234.261581,354.714142 232.438904,354.612701 231.484299,353.650269 
	C228.404846,350.545502 225.736267,350.494232 222.828735,353.568329 
	C221.898300,354.552063 220.222870,354.831207 217.520065,356.049408 
	C220.183655,349.332184 221.995529,343.921417 224.464920,338.829529 
	C226.125565,335.405273 228.420197,335.955658 230.178284,339.629150 
z"/>
<path fill="#313131" opacity="1.000000" stroke="none" 
	d="
M280.337158,354.232849 
	C278.852966,354.236755 276.885193,354.258270 275.916626,353.285187 
	C273.279480,350.635773 269.900330,350.608154 267.349548,353.366730 
	C266.378571,354.416809 264.686157,354.799744 263.322571,355.486725 
	C263.078583,355.155853 262.834595,354.825012 262.590637,354.494141 
	C264.680817,349.321075 266.687347,344.111145 268.937408,339.008575 
	C269.348297,338.076721 270.758545,337.030823 271.695160,337.042297 
	C272.621582,337.053650 273.965363,338.147949 274.377350,339.093414 
	C276.487701,343.936523 278.356293,348.885040 280.337158,354.232849 
z"/>
<path fill="#333333" opacity="1.000000" stroke="none" 
	d="
M322.688904,354.204834 
	C320.105438,350.677185 316.449341,350.433411 314.039948,352.971680 
	C312.937256,354.133362 311.219727,354.711365 309.781067,355.554108 
	C309.543945,355.228455 309.306793,354.902832 309.069672,354.577179 
	C311.146942,349.363892 313.137756,344.112854 315.380890,338.971924 
	C315.786346,338.042725 317.245667,337.005707 318.185974,337.035736 
	C319.143341,337.066284 320.499847,338.159882 320.921844,339.121429 
	C323.111053,344.109436 325.057281,349.204132 327.395721,355.027557 
	C325.558868,354.842804 324.239227,354.710052 322.688904,354.204834 
z"/>
<path fill="#323232" opacity="1.000000" stroke="none" 
	d="
M250.283722,346.142334 
	C251.376465,344.287537 252.258728,342.743439 252.995102,341.454651 
	C251.145676,338.919678 245.854980,343.134888 246.176682,337.135498 
	C250.934158,337.135498 255.496933,337.135498 260.859619,337.135498 
	C257.926697,341.958710 255.312775,346.257294 252.796387,350.395508 
	C255.215973,352.662628 260.181793,348.856201 260.627716,354.750000 
	C255.423889,354.750000 250.532486,354.750000 245.083740,354.750000 
	C246.877563,351.767090 248.475403,349.110046 250.283722,346.142334 
z"/>
<path fill="#292929" opacity="1.000000" stroke="none" 
	d="
M286.980560,341.163696 
	C286.980591,345.918945 286.980591,350.196503 286.980591,354.731079 
	C285.613586,354.731079 284.550201,354.731079 283.175201,354.731079 
	C283.175201,349.091156 283.175201,343.363678 283.175201,337.610718 
	C286.649628,336.882782 286.649628,336.882782 286.980560,341.163696 
z"/>
</svg>