<svg xmlns="http://www.w3.org/2000/svg"  viewBox="0 0 50 50" width="50px" height="50px"><path d="M49.28,13.49c-0.63-0.54-1.52-0.64-2.27-0.25l-12.987,6.938L26.66,8.92C26.28,8.33,25.61,7.97,24.94,8 c-0.71,0.01-1.34,0.38-1.7,0.97l-6.918,11.232l-13.35-6.969c-0.753-0.393-1.647-0.282-2.281,0.281 c-0.643,0.572-0.86,1.462-0.556,2.263l6.804,18.206C7.379,35.189,8.534,36,9.812,36h31.6c0.001,0,0.002,0,0.003,0 C42,36,43,36,43.9,33.99l5.99-18.28C50.16,14.9,49.92,14.03,49.28,13.49z M24.99,10.01l14.6,22.338l-21.474-11.21L24.99,10.01z M9.812,34c-0.441,0-0.841-0.282-0.997-0.709L2.047,15.007L38.45,34H9.812z M47.99,15.08l-5.773,17.628l-7.082-10.829L47.99,15.03 c0.01,0,0.01,0,0.01,0.01S48,15.06,47.99,15.08z"/></svg>